<?xml version="1.0" encoding="utf-8"?><!-- Uploaded to: SVG Repo, www.svgrepo.com, Generator: SVG Repo Mixer Tools -->
<svg width="800px" height="800px" viewBox="0 0 24 24" fill="none" xmlns="http://www.w3.org/2000/svg">
<path d="M19.0231 18.4639C10.7682 22.3925 5.64514 19.1056 2.36571 17.1091C2.16278 16.9833 1.81787 17.1385 2.11713 17.4823C3.20967 18.807 6.79016 22 11.4637 22C16.1405 22 18.9228 19.4481 19.2709 19.003C19.6165 18.5616 19.3724 18.3181 19.023 18.4639H19.0231ZM21.3414 17.1836C21.1197 16.8949 19.9935 16.8411 19.2847 16.9282C18.5748 17.0127 17.5092 17.4466 17.6018 17.7071C17.6494 17.8047 17.7464 17.7609 18.2341 17.7171C18.7231 17.6683 20.093 17.4954 20.3785 17.8685C20.6652 18.2443 19.9415 20.0342 19.8094 20.3228C19.6817 20.6115 19.8582 20.6859 20.098 20.4937C20.3346 20.3015 20.7629 19.8038 21.0503 19.0994C21.3358 18.3913 21.5098 17.4034 21.3413 17.1836H21.3414Z" fill="#000000"/>
<path fill-rule="evenodd" clip-rule="evenodd" d="M13.4726 10.4476C13.4726 11.4784 13.4986 12.338 12.9776 13.2535C12.5571 13.9978 11.8909 14.4555 11.1467 14.4555C10.1307 14.4555 9.53901 13.6814 9.53901 12.539C9.53901 10.2838 11.5597 9.87449 13.4726 9.87449V10.4476ZM16.1408 16.8968C15.9659 17.053 15.7128 17.0643 15.5156 16.96C14.6374 16.2307 14.481 15.892 13.9973 15.1961C12.5459 16.6772 11.5188 17.12 9.63581 17.12C7.4104 17.12 5.6762 15.7468 5.6762 12.9967C5.6762 10.8495 6.84107 9.38697 8.49698 8.67252C9.93349 8.03981 11.9393 7.92818 13.4726 7.75334V7.41094C13.4726 6.78199 13.5209 6.03773 13.1525 5.49444C12.8287 5.00692 12.211 4.80595 11.6676 4.80595C10.6592 4.80595 9.75857 5.3232 9.53901 6.39496C9.4943 6.63318 9.31945 6.86765 9.0813 6.87879L6.51349 6.60346C6.2977 6.55498 6.05955 6.38013 6.11909 6.04887C6.71078 2.93785 9.52034 2 12.036 2C13.3236 2 15.0056 2.3424 16.0216 3.31744C17.3093 4.5194 17.1864 6.12331 17.1864 7.86865V11.992C17.1864 13.2312 17.7 13.7745 18.1837 14.4444C18.3549 14.6825 18.3921 14.9692 18.1763 15.1477C17.6367 15.5979 16.6765 16.4353 16.1481 16.9042L16.1407 16.8968" fill="#000000"/>
<path d="M19.0231 18.4639C10.7682 22.3925 5.64514 19.1056 2.36571 17.1091C2.16278 16.9833 1.81787 17.1385 2.11713 17.4823C3.20967 18.807 6.79016 22 11.4637 22C16.1405 22 18.9228 19.4481 19.2709 19.003C19.6165 18.5616 19.3724 18.3181 19.023 18.4639H19.0231ZM21.3414 17.1836C21.1197 16.8949 19.9935 16.8411 19.2847 16.9282C18.5748 17.0127 17.5092 17.4466 17.6018 17.7071C17.6494 17.8047 17.7464 17.7609 18.2341 17.7171C18.7231 17.6683 20.093 17.4954 20.3785 17.8685C20.6652 18.2443 19.9415 20.0342 19.8094 20.3228C19.6817 20.6115 19.8582 20.6859 20.098 20.4937C20.3346 20.3015 20.7629 19.8038 21.0503 19.0994C21.3358 18.3913 21.5098 17.4034 21.3413 17.1836H21.3414Z" fill="#000000"/>
<path fill-rule="evenodd" clip-rule="evenodd" d="M13.4726 10.4476C13.4726 11.4784 13.4986 12.338 12.9776 13.2535C12.5571 13.9978 11.8909 14.4555 11.1467 14.4555C10.1307 14.4555 9.53901 13.6814 9.53901 12.539C9.53901 10.2838 11.5597 9.87449 13.4726 9.87449V10.4476ZM16.1408 16.8968C15.9659 17.053 15.7128 17.0643 15.5156 16.96C14.6374 16.2307 14.481 15.892 13.9973 15.1961C12.5459 16.6772 11.5188 17.12 9.63581 17.12C7.4104 17.12 5.6762 15.7468 5.6762 12.9967C5.6762 10.8495 6.84107 9.38697 8.49698 8.67252C9.93349 8.03981 11.9393 7.92818 13.4726 7.75334V7.41094C13.4726 6.78199 13.5209 6.03773 13.1525 5.49444C12.8287 5.00692 12.211 4.80595 11.6676 4.80595C10.6592 4.80595 9.75857 5.3232 9.53901 6.39496C9.4943 6.63318 9.31945 6.86765 9.0813 6.87879L6.51349 6.60346C6.2977 6.55498 6.05955 6.38013 6.11909 6.04887C6.71078 2.93785 9.52034 2 12.036 2C13.3236 2 15.0056 2.3424 16.0216 3.31744C17.3093 4.5194 17.1864 6.12331 17.1864 7.86865V11.992C17.1864 13.2312 17.7 13.7745 18.1837 14.4444C18.3549 14.6825 18.3921 14.9692 18.1763 15.1477C17.6367 15.5979 16.6765 16.4353 16.1481 16.9042L16.1407 16.8968" fill="#000000"/>
</svg>