<?xml version="1.0" encoding="utf-8"?><!-- Uploaded to: SVG Repo, www.svgrepo.com, Generator: SVG Repo Mixer Tools -->
<svg width="800px" height="800px" viewBox="0 0 24 24" fill="none" xmlns="http://www.w3.org/2000/svg">
<path d="M21.9277 16.5605C21.7891 16.1816 21.5234 15.9805 21.2227 15.8125C21.166 15.7793 21.1133 15.752 21.0703 15.7324C20.9805 15.6855 20.8887 15.6406 20.7969 15.5938C19.8574 15.0957 19.1231 14.4668 18.6152 13.7227C18.4434 13.4707 18.3242 13.2441 18.2402 13.0586C18.1973 12.9336 18.1992 12.8633 18.2305 12.7988C18.2539 12.75 18.3164 12.6992 18.3516 12.6738C18.5137 12.5664 18.6797 12.459 18.793 12.3867C18.9941 12.2559 19.1543 12.1523 19.2559 12.082C19.6426 11.8125 19.9121 11.5254 20.0801 11.2051C20.3184 10.7539 20.3477 10.2383 20.1641 9.75391C19.9102 9.08203 19.2734 8.66406 18.5039 8.66406C18.3438 8.66406 18.1816 8.68164 18.0215 8.7168C17.9785 8.72656 17.9375 8.73633 17.8965 8.74609C17.9043 8.28906 17.8926 7.80078 17.8516 7.32422C17.707 5.64453 17.1191 4.76367 16.5059 4.0625C16.25 3.76953 15.8047 3.3418 15.1367 2.95898C14.2051 2.42383 13.1504 2.1543 12 2.1543C10.8535 2.1543 9.79883 2.42383 8.86719 2.95703C8.19532 3.33984 7.75001 3.76953 7.4961 4.06055C6.88282 4.76172 6.29493 5.64258 6.1504 7.32227C6.10938 7.79883 6.09961 8.28711 6.10547 8.74414C6.06446 8.73438 6.02149 8.72461 5.98047 8.71484C5.82032 8.67969 5.65626 8.66211 5.49805 8.66211C4.72852 8.66211 4.0918 9.08008 3.8379 9.75195C3.6543 10.2363 3.6836 10.752 3.92188 11.2031C4.08985 11.5234 4.36133 11.8105 4.7461 12.0801C4.84962 12.1523 5.00782 12.2559 5.20899 12.3848C5.31836 12.4551 5.47657 12.5586 5.63282 12.6621C5.65626 12.6777 5.74024 12.7402 5.76954 12.7988C5.80274 12.8652 5.80274 12.9375 5.75391 13.0703C5.67188 13.252 5.55274 13.4746 5.38477 13.7207C4.88672 14.4492 4.17383 15.0664 3.26563 15.5586C2.78321 15.8145 2.28321 15.9844 2.07227 16.5586C1.91211 16.9922 2.01758 17.4863 2.42188 17.9023C2.55469 18.0449 2.72266 18.1719 2.9336 18.2891C3.42969 18.5625 3.85157 18.6973 4.1836 18.7891C4.24219 18.8066 4.37696 18.8496 4.43555 18.9023C4.58399 19.0313 4.56251 19.2266 4.75977 19.5117C4.87891 19.6895 5.01563 19.8105 5.12891 19.8887C5.54102 20.1738 6.00587 20.1914 6.49805 20.2109C6.94141 20.2285 7.44532 20.248 8.01954 20.4375C8.25782 20.5156 8.50586 20.668 8.79102 20.8438C9.47852 21.2676 10.4219 21.8457 11.9981 21.8457C13.5762 21.8457 14.5234 21.2637 15.2168 20.8398C15.502 20.666 15.7481 20.5137 15.9785 20.4375C16.5527 20.248 17.0566 20.2285 17.5 20.2109C17.9922 20.1914 18.4551 20.1738 18.8691 19.8887C18.9981 19.7988 19.1621 19.6523 19.291 19.4297C19.4316 19.1895 19.4297 19.0195 19.5625 18.9043C19.6172 18.8574 19.7363 18.8164 19.8008 18.7969C20.1348 18.7051 20.5625 18.5703 21.0684 18.291C21.293 18.168 21.4668 18.0332 21.6055 17.8789C21.6074 17.877 21.6094 17.875 21.6113 17.873C21.9883 17.4629 22.084 16.9844 21.9277 16.5605ZM20.5273 17.3125C19.6719 17.7852 19.1035 17.7344 18.6621 18.0176C18.2871 18.2598 18.5078 18.7812 18.2363 18.9688C17.9004 19.2012 16.9102 18.9531 15.6309 19.375C14.5762 19.7246 13.9023 20.7266 12.002 20.7266C10.0977 20.7266 9.44336 19.7285 8.37305 19.375C7.09375 18.9531 6.10157 19.2012 5.76758 18.9688C5.4961 18.7812 5.7168 18.2598 5.3418 18.0176C4.9004 17.7324 4.33204 17.7832 3.47657 17.3125C2.93165 17.0117 3.24024 16.8262 3.42188 16.7383C6.51954 15.2402 7.01172 12.9238 7.03516 12.75C7.0625 12.543 7.0918 12.3789 6.86329 12.166C6.64258 11.9609 5.66016 11.3535 5.38868 11.1641C4.93751 10.8496 4.74024 10.5352 4.88672 10.1484C4.98829 9.88086 5.23829 9.78125 5.50196 9.78125C5.58399 9.78125 5.66797 9.79102 5.74805 9.80859C6.24219 9.91602 6.72266 10.1641 7.00001 10.2305C7.03907 10.2402 7.07227 10.2441 7.10157 10.2441C7.25001 10.2441 7.30079 10.1699 7.29102 10C7.25977 9.45899 7.18165 8.4043 7.26758 7.41797C7.38477 6.0625 7.82227 5.39063 8.3418 4.79492C8.5918 4.50977 9.76368 3.27148 12.0039 3.27148C14.25 3.27148 15.416 4.50977 15.666 4.79492C16.1856 5.38867 16.6231 6.06055 16.7402 7.41797C16.8262 8.4043 16.752 9.45899 16.7168 10C16.7051 10.1777 16.7598 10.2441 16.9063 10.2441C16.9356 10.2441 16.9707 10.2402 17.0078 10.2305C17.2852 10.1641 17.7656 9.91602 18.2598 9.80859C18.3398 9.79102 18.4238 9.78125 18.5059 9.78125C18.7695 9.78125 19.0195 9.88281 19.1211 10.1484C19.2676 10.5352 19.0684 10.8496 18.6191 11.1641C18.3477 11.3535 17.3652 11.9609 17.1445 12.166C16.916 12.377 16.9453 12.541 16.9727 12.75C16.9941 12.9238 17.4883 15.2402 20.5859 16.7383C20.7617 16.8262 21.0723 17.0117 20.5273 17.3125Z" fill="#000000"/>
</svg>